<?xml version="1.0" encoding="UTF-8"?>
<svg id="Layer_1" xmlns="http://www.w3.org/2000/svg" version="1.1" viewBox="0 0 100 100">
  <!-- Generator: Adobe Illustrator 29.1.0, SVG Export Plug-In . SVG Version: 2.1.0 Build 142)  -->
  <defs>
    <style>
      .st0 {
        fill: #52e05e;
        fill-rule: evenodd;
      }
    </style>
  </defs>
  <path class="st0" d="M88.1,1H11.9C5.9,1,1,5.9,1,11.9v76.2c0,6,4.9,10.9,10.9,10.9h76.2c6,0,10.9-4.9,10.9-10.9V11.9c0-6-4.9-10.9-10.9-10.9ZM30.6,85.4h-14.6v-47.2h14.6v47.2ZM23.3,32c-4.8,0-8.6-3.9-8.6-8.7s3.9-8.7,8.6-8.7,8.6,3.9,8.6,8.7-3.9,8.7-8.6,8.7ZM85.4,85.4h-14.5v-24.8c0-6.8-2.6-10.6-8-10.6s-8.9,3.9-8.9,10.6v24.8h-14v-47.2h14v6.4s4.2-7.8,14.2-7.8,17.2,6.1,17.2,18.8v29.9Z"/>
</svg>