<?xml version="1.0" encoding="UTF-8"?>
<svg id="Layer_1" xmlns="http://www.w3.org/2000/svg" version="1.1" viewBox="0 0 100 100">
  <!-- Generator: Adobe Illustrator 29.1.0, SVG Export Plug-In . SVG Version: 2.1.0 Build 142)  -->
  <defs>
    <style>
      .st0 {
        fill: #52e05e;
      }
    </style>
  </defs>
  <path class="st0" d="M55.8,91.7c1.9-1.8,3.7-3.7,5.5-5.7l-4.1-3.6c-1.9,2.1-3.9,4.2-5.9,6.1v-11.8h6.5v-5.5h-6.5v-19l16-.2c0,.8,0,1.5,0,2.3l5.5.3c0-.9,0-1.8,0-2.6l18.5-.2c-.2,2.8-.6,5.5-1.1,8.2l5.4,1.1c.8-3.8,1.2-7.6,1.4-11.5h0c0-5.4-.9-10.6-2.5-15.5-4.1-12.3-12.8-22.2-24.4-27.9C58.3.3,45.2-.6,32.9,3.6,20.7,7.7,10.8,16.3,5,27.9-.7,39.5-1.6,52.6,2.5,64.9c4.1,12.3,12.8,22.2,24.4,27.9,6.8,3.4,14.1,5.1,21.5,5.1s10.4-.8,15.5-2.6l-1.8-5.2c-2.1.7-4.2,1.2-6.3,1.6ZM45.6,89.1c-3.1-2.5-6.4-5.5-9.1-10-.5-.8-.9-1.6-1.4-2.4h10.5v12.4ZM45.6,71.2h-12.9c-1.9-5.4-2.9-11.6-3.1-18.7l15.9-.2v18.9ZM5.5,47.2c.3-5.8,1.8-11.5,4.4-16.8.1-.2.2-.5.4-.7h17.2c-1.9,5.5-3,11.4-3.3,17.3l-18.7.2ZM33.4,29.7h12.3v17l-15.9.2c.4-5.9,1.6-11.7,3.6-17.2ZM51.2,9.8c3.8,4.1,7,8.7,9.5,13.8.1.2.2.4.3.7h-9.9v-14.4ZM45.6,24.2h-9.9c2.6-5.2,5.9-10.1,9.9-14.4v14.4ZM51.2,29.7h12.2c1.9,5.1,3.1,10.5,3.5,16h0c0,.3,0,.5,0,.8l-15.8.2v-17ZM91.2,46.2l-18.7.2c0-.4,0-.8,0-1.1-.4-5.3-1.5-10.5-3.2-15.6h17.3c1,1.9,1.9,4,2.6,6.1,1.1,3.4,1.8,6.9,2.1,10.4ZM83.1,24.2h-16c-.5-1.1-1-2.1-1.5-3.1-2.5-5-5.6-9.6-9.3-13.8,3.8.7,7.6,2,11.2,3.8,6.3,3.1,11.6,7.6,15.6,13.2ZM34.7,8.8c1.9-.6,3.8-1.1,5.7-1.5-4.5,5.1-8.1,10.8-10.8,16.9h-16c5.2-7.2,12.5-12.5,21-15.4ZM5.6,52.7l18.6-.2c.2,7,1.1,13.2,2.8,18.7h-15.6c-1.5-2.5-2.7-5.2-3.6-8-1.2-3.4-1.9-6.9-2.1-10.4ZM15.2,76.7h13.8c.8,1.9,1.8,3.6,2.8,5.3,2.5,4.1,5.4,7.1,8.2,9.6-3.7-.7-7.3-2-10.7-3.7-5.5-2.7-10.3-6.6-14.1-11.2Z"/>
  <path class="st0" d="M85.8,72.7l5.4-3.5c1.6-1,2.1-3.1,1.2-4.7-.5-.8-1.3-1.4-2.2-1.6l-28.1-6.6h0c-1.9-.4-3.7.8-4.1,2.7,0,.5,0,.9,0,1.4l6.1,28.6c.2.9.7,1.7,1.5,2.2.8.5,1.7.7,2.6.5.9-.2,1.7-.7,2.2-1.5l3.4-5.4,14.2,14.2,12-12.1-14.2-14.2ZM88,91.2l-15.2-15.2-4.4,7-4.4-20.6,20.2,4.7-7.2,4.6,15.2,15.2-4.2,4.3Z"/>
</svg>