<?xml version="1.0" encoding="UTF-8"?>
<svg id="Layer_1" xmlns="http://www.w3.org/2000/svg" version="1.1" viewBox="0 0 100 100">
  <!-- Generator: Adobe Illustrator 29.1.0, SVG Export Plug-In . SVG Version: 2.1.0 Build 142)  -->
  <defs>
    <style>
      .st0 {
        fill: #52e05e;
      }
    </style>
  </defs>
  <circle class="st0" cx="50" cy="50" r="12.1"/>
  <path class="st0" d="M78.2,28.7c-.7-1.7-1.4-2.9-2.7-4.2-1.3-1.3-2.5-2.1-4.2-2.7-1.3-.5-3.2-1.1-6.7-1.2-3.8-.2-5-.2-14.6-.2s-2.3,0-3.2,0h0c-6.7,0-8,0-11.4.2-3.5.2-5.4.7-6.7,1.2-1.7.7-2.9,1.4-4.2,2.7-1.3,1.3-2.1,2.5-2.7,4.2-.5,1.3-1.1,3.2-1.2,6.7-.2,3.8-.2,5-.2,14.6s0,10.8.2,14.6c.2,3.5.8,5.4,1.2,6.7.7,1.7,1.4,2.9,2.7,4.2s2.5,2.1,4.2,2.7c1.3.5,3.2,1.1,6.7,1.2,3.8.2,5,.2,14.6.2s10.8,0,14.6-.2c3.5-.2,5.4-.7,6.7-1.2,1.7-.7,2.9-1.4,4.2-2.7,1.3-1.3,2.1-2.5,2.7-4.2.5-1.3,1.1-3.2,1.2-6.7.2-3.8.2-5,.2-14.6s0-10.8-.2-14.6c-.2-3.5-.8-5.4-1.2-6.7ZM50,68.6c-10.3,0-18.6-8.3-18.6-18.6s8.3-18.6,18.6-18.6h0,0,0c10.3,0,18.6,8.3,18.6,18.6s-8.3,18.6-18.6,18.6ZM69.3,35c-2.4,0-4.3-1.9-4.3-4.3s1.9-4.3,4.3-4.3h0c2.4,0,4.3,1.9,4.3,4.3s-1.9,4.3-4.3,4.3Z"/>
  <path class="st0" d="M98.9,22.2c-.3-3.9-1-6.6-2.4-9.4-1.1-2.3-2.4-4-4.2-5.7-3.2-3.1-7.2-5-11.9-5.7-2.3-.3-2.7-.4-14.5-.4h-15.9c-20.5,0-26.4,0-27.6.1-4.2.3-6.8,1-9.7,2.4-2.2,1.1-3.9,2.4-5.6,4.1-3.1,3.2-5,7.2-5.7,11.9-.3,2.3-.4,2.8-.4,14.5,0,3.9,0,9,0,15.9,0,20.4,0,26.4.1,27.6.3,4.1,1,6.7,2.3,9.5,2.6,5.4,7.5,9.4,13.4,10.9,2,.5,4.3.8,7.1.9,1.2,0,13.6,0,26,0s24.8,0,25.9,0c3.3-.2,5.2-.4,7.4-1,5.9-1.5,10.7-5.5,13.4-11,1.3-2.7,2-5.4,2.3-9.3,0-.8,0-14.3,0-27.7s0-26.9,0-27.7ZM86,64.9c-.2,3.8-.8,6.5-1.7,8.8-.9,2.4-2.2,4.4-4.2,6.4-2,2-4,3.3-6.4,4.2-2.3.9-4.9,1.5-8.8,1.7-3.9.2-5.1.2-14.9.2s-11.1,0-14.9-.2c-3.9-.2-6.5-.8-8.8-1.7-2.4-.9-4.4-2.2-6.4-4.2-2-2-3.2-4-4.2-6.4-.9-2.3-1.5-4.9-1.7-8.8-.2-3.9-.2-5.1-.2-14.9s0-11.1.2-14.9c.2-3.8.8-6.5,1.7-8.8.9-2.4,2.2-4.4,4.2-6.4,2-2,4-3.2,6.4-4.2,2.3-.9,4.9-1.5,8.8-1.7,3.9-.2,5.1-.2,14.9-.2h0,0,0c9.8,0,11.1,0,14.9.2,3.9.2,6.5.8,8.8,1.7,2.4.9,4.4,2.2,6.4,4.2,2,2,3.2,4,4.2,6.4.9,2.3,1.5,4.9,1.7,8.8.2,3.9.2,5.1.2,14.9s0,11.1-.2,14.9Z"/>
</svg>