<?xml version="1.0" encoding="UTF-8"?>
<svg id="svg2" xmlns="http://www.w3.org/2000/svg" xmlns:svg="http://www.w3.org/2000/svg" version="1.1" viewBox="0 0 620 620">
  <!-- Generator: Adobe Illustrator 29.0.0, SVG Export Plug-In . SVG Version: 2.1.0 Build 186)  -->
  <path id="path2413" d="M310,9.8c-81,0-116,15.8-150.1,57.5-25.2,30.7-28.7,67.4-28.7,87.1s8.6,61.7,35.5,90.4c26.3,28,56.5,44.1,104.6,49.3v228.9c-41-15.6-70.2-55.1-70.4-101.5,19.9,5.1,37.1,7.2,49.6,8.1v-79.5c-38.9-4.3-122.4-25.2-165.5-124.3l-73,31.4c29,65.9,70.5,106.7,111.8,132-1.7,10.3-2.7,20.9-2.7,31.7,0,104.3,84.6,188.9,188.9,188.9s188.9-84.6,188.9-188.9c0-3.4-.1-6.9-.3-10.2-28.8,16.5-57.2,26.3-81.7,32.2-7.5,36.9-33.7,67-68.2,80.1v-92.8s179.3,9.6,259.4-172.9l-73-31.4c-57.2,131.7-185.8,125.3-186.3,125.3v-57.1c48.1-5.2,78.4-21.3,104.6-49.3,26.9-28.7,35.5-64.3,35.5-90.4s-3.6-56.4-28.7-87.1c-34.2-41.6-69.2-57.5-150.1-57.5ZM310,89.5c48.2,0,63.1,2.8,82.1,21.1,13.9,13.4,17,26.5,17,42.2s-6.3,33.4-21.9,45.1c-21.1,16-37.4,16.8-77.2,16.8s-61.7-3.1-79.5-19.1c-14.5-13.1-19.7-28.9-19.7-42.9s1.2-26.6,17-42.2c18.7-18.5,33.5-21.1,82.1-21.1Z" fill="#570849"/>
</svg>