<?xml version="1.0" encoding="UTF-8"?>
<svg id="Layer_1" xmlns="http://www.w3.org/2000/svg" xmlns:xlink="http://www.w3.org/1999/xlink" version="1.1" viewBox="0 0 620 620">
  <!-- Generator: Adobe Illustrator 29.0.0, SVG Export Plug-In . SVG Version: 2.1.0 Build 186)  -->
  <defs>
    <mask id="mask" x="10" y="10" width="600" height="600" maskUnits="userSpaceOnUse">
      <g id="a">
        <circle cx="310" cy="310" r="264" stroke="#fff" stroke-miterlimit="32" stroke-width="48"/>
        <path d="M10,268h600v84H10" fill="#fff"/>
        <path d="M10,256h600v12H10M10,304h600v12H10M10,352h300v12H10"/>
        <path d="M196,238l114,288M424,238l-114,288" fill="#fff" stroke="#000" stroke-miterlimit="32" stroke-width="16"/>
        <path d="M196,238h228l-114,288-114-288ZM520.8,166l53.2,90h-157.1l103.9-90Z" fill="#fff"/>
        <path d="M268,226h12v264h-12V226ZM340,226h12v264h-12V226Z"/>
      </g>
    </mask>
  </defs>
  <g mask="url(#mask)">
    <circle cx="310" cy="310" r="300" fill="#35792f"/>
  </g>
</svg>