<?xml version="1.0" encoding="UTF-8"?>
<svg id="Layer_1" xmlns="http://www.w3.org/2000/svg" version="1.1" viewBox="0 0 620 620">
  <!-- Generator: Adobe Illustrator 29.0.0, SVG Export Plug-In . SVG Version: 2.1.0 Build 186)  -->
  <defs>
    <style>
      .st0 {
        fill: #5a004a;
      }
    </style>
  </defs>
  <path id="path2398" class="st0" d="M310,12.4C144.4,12.4,10,145.7,10,310s134.4,297.6,300,297.6,300-133.3,300-297.6S475.6,12.4,310,12.4h0ZM310,65.7c135.9,0,246.2,109.4,246.2,244.3s-110.3,244.3-246.2,244.3S63.8,444.8,63.8,310s110.3-244.3,246.2-244.3h0ZM230,147.9v46.4h77.9l-41.9,69.5-28-13.4s-10.3-5.8-32.2-5.8c-50.9,0-77.5,33.9-77.5,65.3s25.1,65.6,76.8,65.6,62.1-19.5,80-52l26.7,13.1-81.7,135.6h160.1v-46.4h-77.9l41.8-69.3,27.6,13.2s10.3,5.8,32.2,5.8c50.9,0,77.5-33.9,77.5-65.3s-25.1-65.6-76.8-65.6-62.1,19.5-80,52l-26.3-12.9,81.8-135.8h-160.1ZM205.7,286.7c13.6,0,36,14.9,36,14.9-9.3,14.7-14.8,31.5-36,31.5s-27.5-10-27.5-23.3,17-23.2,27.5-23.2h0ZM413.8,286.8c16.3,0,27.5,10,27.5,23.3s-17,23.2-27.5,23.2-36-14.9-36-14.9c9.3-14.7,14.8-31.5,36-31.5Z"/>
</svg>