<?xml version="1.0" encoding="UTF-8"?>
<svg id="svg2" xmlns="http://www.w3.org/2000/svg" xmlns:svg="http://www.w3.org/2000/svg" version="1.1" viewBox="0 0 620 649.5">
  <!-- Generator: Adobe Illustrator 29.0.0, SVG Export Plug-In . SVG Version: 2.1.0 Build 186)  -->
  <defs>
    <style>
      .st0 {
        fill: #110d5b;
      }
    </style>
  </defs>
  <path id="path2388" class="st0" d="M310.1,11.2l-45,27v23.2C120.8,83.2,10.1,207.7,10.1,358.1s75.7,231,183.5,276.5l70.8-70.8c14.7,3.3,30,5,45.7,5s31-1.7,45.7-5l70.8,70.8c107.8-45.5,183.5-152.2,183.5-276.5,0-150.3-110.7-274.9-255-296.6v-23.2s-45-27-45-27ZM265.1,152.2v283.4l-86.8,86.8c-48.1-38.6-78.9-97.9-78.9-164.3,0-100.9,71-185.2,165.7-205.9ZM355,152.2c94.7,20.6,165.7,105,165.7,205.9s-30.8,125.7-78.9,164.3l-86.8-86.8s0-283.4,0-283.4Z"/>
</svg>