<?xml version="1.0" encoding="UTF-8"?>
<svg id="Layer_1" xmlns="http://www.w3.org/2000/svg" version="1.1" viewBox="0 0 620 620">
  <!-- Generator: Adobe Illustrator 29.0.0, SVG Export Plug-In . SVG Version: 2.1.0 Build 186)  -->
  <path d="M243.6,187L298.8,10.2l53.5,176.8c23,.8,46.1-.8,69,0,48.8,1.8,92.4,23.4,120.3,63.7,57.1,82.3,16.1,197.5-79.6,225.1-6.1,1.7-12.6,2.4-18.3,4-.6.2-1.1.2-1.5.8l39.3,129.6-183.6-128.1-183.6,128.1,38.8-128.7H53.2v-135.2h370.5c.2,0,3.3-1.8,3.8-2.1,7.6-5.5,6-18.1-3-21s-4-1-4.3-1H53.2v-135.2h190.4Z" fill="#633565"/>
</svg>