<?xml version="1.0" encoding="UTF-8"?>
<svg id="Layer_1" xmlns="http://www.w3.org/2000/svg" version="1.1" viewBox="0 0 620 413.3">
  <!-- Generator: Adobe Illustrator 29.0.0, SVG Export Plug-In . SVG Version: 2.1.0 Build 186)  -->
  <defs>
    <style>
      .st0 {
        fill: #3f0541;
      }
    </style>
  </defs>
  <path class="st0" d="M10,73.4h232L310,6.7l68,66.7h232l-154.3,85.7c44.7,80.5,15.7,181.9-64.8,226.6-21.5,11.9-45.3,19-69.8,20.6v-66.9c54.9-6.1,94.4-55.6,88.3-110.5-6.1-54.9-55.6-94.4-110.5-88.3-54.9,6.1-94.4,55.6-88.3,110.5,5.2,46.4,41.8,83.1,88.3,88.3v66.9c-91.8-6.1-161.3-85.6-155.2-177.4,1.6-24.5,8.7-48.4,20.6-69.8L10,73.4ZM310,153.6c0,47.7,38.7,86.4,86.4,86.4h0c-47.7,0-86.4,38.7-86.4,86.4,0-47.7-38.7-86.4-86.4-86.4,47.7,0,86.4-38.7,86.4-86.4s0,0,0,0Z"/>
</svg>