<?xml version="1.0" encoding="UTF-8"?>
<svg id="svg2" xmlns="http://www.w3.org/2000/svg" xmlns:svg="http://www.w3.org/2000/svg" version="1.1" viewBox="0 0 620 620">
  <!-- Generator: Adobe Illustrator 29.0.0, SVG Export Plug-In . SVG Version: 2.1.0 Build 186)  -->
  <defs>
    <style>
      .st0 {
        fill: #570849;
      }
    </style>
  </defs>
  <g id="layer1">
    <path id="path5131" class="st0" d="M310,10c-1.1,0-2.1,0-3.2,0-1.1,0-2.1,0-3.2,0-2.1,0-4.3.1-6.4.2C137.5,17,10,148.7,10,310s12.3,97.3,34,138.8c.2.3.3.6.5.9,0,0,0,.1.1.2.4.7.7,1.3,1.1,2,.5.8.9,1.7,1.4,2.5.5.9,1,1.9,1.6,2.8.4.7.8,1.4,1.2,2,.1.2.3.5.4.7.5.8.9,1.6,1.4,2.4.6,1,1.2,2.1,1.9,3.1.3.5.6.9.9,1.4.3.4.5.9.8,1.3.6.9,1.1,1.8,1.7,2.7,53.3,83.6,146.8,139.1,253.2,139.1s199.9-55.5,253.2-139.1c.5-.8,1-1.5,1.5-2.3,0-.1.1-.3.2-.4,1.1-1.8,2.2-3.6,3.3-5.5.5-.9,1.1-1.8,1.6-2.8,2.1-3.7,4.2-7.4,6.2-11.2,21.7-41.5,34-88.7,34-138.8,0-161.3-127.5-293-287.2-299.7h0c-.4,0-.8,0-1.2,0-.7,0-1.3,0-2,0-.6,0-1.2,0-1.9,0,0,0-.1,0-.2,0-.9,0-1.8,0-2.7,0-.3,0-.7,0-1,0-.2,0-.5,0-.7,0-1.1,0-2.1,0-3.2,0ZM294.9,34.4l-13,137.6h-130.9l125.6,53.9c-2.7,19.2-9.1,37.9-19,54.9-9.3,16-21.8,30.5-37.2,42.5l-109.5-81.9,65.5,113.4-112.7,80.1c-19-37.5-29.8-79.9-29.8-124.8,0-147.3,115.6-267.8,260.9-275.6ZM325.1,34.4c145.3,7.8,260.9,128.3,260.9,275.6s-10.7,87.3-29.8,124.8l-112.7-80.1,65.5-113.4-109.5,81.9c-15.3-11.9-28.3-26.8-38-43.9-9.2-16.1-15.5-34.1-18.2-53.5l125.7-53.9h-130.9l-13-137.6ZM310.8,370c18.5,0,37.3,3.6,55.4,11l-16.2,135.8,65.5-113.4,125.7,57.5c-49.3,75.3-134.4,125.2-231.1,125.2s-181.8-49.8-231.1-125.2l125.7-57.5,65.5,113.4-16.2-135.7c18-7.3,37.4-11.1,57-11Z"/>
  </g>
</svg>