<?xml version="1.0" encoding="UTF-8"?>
<svg id="Layer_1" xmlns="http://www.w3.org/2000/svg" version="1.1" viewBox="0 0 620 596.2">
  <!-- Generator: Adobe Illustrator 29.0.0, SVG Export Plug-In . SVG Version: 2.1.0 Build 186)  -->
  <defs>
    <style>
      .st0 {
        fill: #674498;
      }
    </style>
  </defs>
  <path class="st0" d="M596.6,363.5c-27.6-47.8-88.8-64.2-136.6-36.6l-50,28.9v-77l200-115.5L343.3,9.4v230.9l-66.7,38.5V124.9l-150,86.6c-15.9,9.2-36.3,3.7-45.5-12.2-9.2-15.9-3.7-36.3,12.2-45.5,15.9-9.2,36.3-3.7,45.5,12.2l171.1-98.8V28.7l-135,77.9c-32.2-27.5-78.3-31.8-115-10.6C12.2,123.6-4.2,184.8,23.4,232.6c27.6,47.8,88.8,64.2,136.6,36.6l50-28.9v77L10,432.8l266.7,154v-230.9l66.7-38.5v154l150-86.6c15.9-9.2,36.3-3.7,45.5,12.2,9.2,15.9,3.7,36.3-12.2,45.5-15.9,9.2-36.3,3.7-45.5-12.2l-171.1,98.8v38.5l135-77.9c32.2,27.5,78.3,31.8,115,10.6,47.8-27.6,64.2-88.8,36.6-136.6ZM210,471.3l-66.7-38.5,66.7-38.5v77ZM410,124.9l66.7,38.5-66.7,38.5v-77Z"/>
</svg>