<?xml version="1.0" encoding="UTF-8"?>
<svg id="Layer_1" xmlns="http://www.w3.org/2000/svg" xmlns:rdf="http://www.w3.org/1999/02/22-rdf-syntax-ns#" xmlns:dc="http://purl.org/dc/elements/1.1/" xmlns:cc="http://creativecommons.org/ns#" version="1.1" viewBox="0 0 620 546.2">
  <!-- Generator: Adobe Illustrator 29.0.0, SVG Export Plug-In . SVG Version: 2.1.0 Build 186)  -->
  <defs>
    <style>
      .st0 {
        fill: #21155b;
      }
    </style>
  </defs>
  <path class="st0" d="M309.7,243.5c-103,.2-204.9,20.7-299.9,60.3,34.4,83.9,79.9,162.9,135.2,234.7,60.3-46.2,113.6-101,158.1-162.6-9.4-13.1-18.3-26.6-26.9-40.3-34.8,50.8-75.9,97.1-122.2,137.8-31.8-45.5-59.6-93.7-83.2-144,72-24.9,147.3-38.6,223.5-40.5,8.8-14.7,17-29.8,24.7-45.1-3.1-.2-6.2-.3-9.3-.5h0Z"/>
  <path class="st0" d="M272,308.6c51.7,89.1,120.4,167.1,202.2,229.6,55.5-71.8,101.1-150.6,135.7-234.5-70.2-29.1-144.3-47.8-219.9-55.6-6.7,14.7-13.8,29.2-21.4,43.4,61.4,4.7,122.1,17.2,180.4,37-23.5,50.3-51.3,98.5-83.1,144-57.6-49.9-107.1-108.3-146.8-173.3-17.1-.2-34.3.2-51.4,1.2,1.4,2.8,2.8,5.5,4.2,8.2h0Z"/>
  <path class="st0" d="M346.9,309.8c51.3-89.3,84.5-187.8,97.7-289.9-89.9-12.2-181-12.3-270.9-.3,9.9,75.3,30.7,148.9,61.7,218.2,16.1-1.5,32.2-2.6,48.3-3.2-26.6-55.6-46.2-114.3-58.2-174.7,55.3-4.8,111-4.8,166.3,0-14.4,74.8-40.3,146.9-76.7,213.8,8.4,15,17.3,29.6,26.7,43.9,1.7-2.6,3.4-5.2,5-7.8h0Z"/>
</svg>