<?xml version="1.0" encoding="UTF-8"?>
<svg id="Layer_1" xmlns="http://www.w3.org/2000/svg" version="1.1" viewBox="0 0 598 620">
  <!-- Generator: Adobe Illustrator 29.0.0, SVG Export Plug-In . SVG Version: 2.1.0 Build 186)  -->
  <defs>
    <style>
      .st0 {
        fill: #110d5b;
      }
    </style>
  </defs>
  <path class="st0" d="M457.4,337l131.6-227.9h-263.2v-54.1l-26.8-46.4-26.8,46.4v54.1H9l131.6,227.9-46.8,27-26.8,46.4h53.6l46.8-27,131.6,227.9,131.6-227.9,46.8,27h53.6l-26.8-46.4-46.8-27ZM411,310.2l-58.4-33.7,116.8-67.5-58.4,101.2ZM442.6,162.7l-116.8,67.5v-67.5h116.8ZM272.2,230.1l-116.8-67.5h116.8v67.5ZM128.6,209.1l116.8,67.5-58.4,33.7-58.4-101.2ZM272.2,322.9v134.9l-58.4-101.2,58.4-33.7ZM325.8,457.8v-134.9l58.4,33.7-58.4,101.2Z"/>
</svg>