<?xml version="1.0" encoding="UTF-8"?>
<svg id="Layer_1" xmlns="http://www.w3.org/2000/svg" version="1.1" viewBox="0 0 620 620">
  <!-- Generator: Adobe Illustrator 29.0.0, SVG Export Plug-In . SVG Version: 2.1.0 Build 186)  -->
  <path d="M374.5,68.3c16.6-21.6,43.6-31.6,70.3-24.4,38.3,10.3,57.8,52.6,42.4,89,28.8-12.1,62.5-2.8,80.1,23.1,19.9,29.3,12.4,68.6-15.6,89.6,21.8,1.8,41.8,16,51.4,35.4,20.2,40.9-6.4,89.2-51.4,93.7,29.8,22.4,35.9,64.6,12.3,94-18.3,22.7-49.9,29.9-76.8,18.7,12.6,29.9,2,64.7-25.7,81.6-29.4,18-66.4,9.9-87-17.1-1.7,20.8-14.7,39.9-32.8,49.9-40.9,22.8-91.7-3.8-96.3-49.9-21.8,28.8-62.1,35.6-91.6,14-24.4-17.9-32.8-50.7-21.1-78.6-29.9,12.5-65.1,1.9-81.8-26-17.7-29.4-9.7-66.3,17.3-86.7-20.7-1.8-39.9-14.7-49.9-32.8-22.8-40.9,3.8-91.8,49.9-96.3-25.8-19.5-34.6-54.9-19-83.8,16.1-29.8,52.4-42,83.6-28.9-12.5-30.1-2.1-64.6,25.7-81.6s66.6-9.9,87,17.1c2.4-28.3,24.9-52.1,52.7-57.2s73,19.6,76.4,57.2ZM329.9,219.4l35.6-133.1c5.7-27.6-10.8-56.2-37.6-64.9-43.2-14-84.1,24.6-72.8,68.2l34.8,129.9c13.1-2.8,26.8-2.9,39.9,0ZM188.5,50c-47.1,3.4-69.5,59.6-38.1,94.6l96.8,96.8c9.8-8.8,21.5-15.5,34.1-19.7l.5-1-35.7-132.8c-8.5-24-32-39.7-57.6-37.9ZM423.1,50c-23.1,1.7-43.8,18.3-49.9,40.7l-34.9,130.1c-.1.4,0,.7.4.9,1.1.8,8,2.8,10.1,3.8,8.6,3.9,17.1,9.4,24,16l97.8-97.8c32.4-38.5,3.1-97.4-47.5-93.6ZM101.4,136c-59.7,5.1-70.7,88.7-15,109.5l134.5,36.1c4.4-12.7,11.1-24.6,20.5-34.4l-98.1-98.1c-11.8-9.5-26.5-14.5-41.8-13.2ZM399.1,281.9l133-35.7c82.6-35.7,15.5-151-56.5-95.9l-96.3,96.3.4,1.7c8.7,9.6,15.7,21.1,19.4,33.6ZM303.8,220.4c-27.9,2-53.6,16.9-69.1,39.9,3.8-.7,6.4,2.5,9.7,3.4,13.5-18.5,34.8-31.3,57.9-33.1,0-3.6-.5-7.1,1.5-10.2ZM385.3,260.3c-15.3-23.2-41.3-38-69.1-39.9,2.3,2.9,2.1,6.8,2,10.2,22.7,2,44.6,14.5,57.4,33.3,3.3-1,5.9-3.9,9.7-3.6ZM305.3,239c-55.8,3.7-86.4,67-54.6,113.2,28.2,41,89.1,41.4,118.1,1,35.6-49.5-2.9-118.3-63.5-114.2ZM218.3,289.5l-132.1-35.1c-27.9-5.9-57.2,11.4-65.3,38.7-12.8,43.1,25.3,82.7,68.6,71.7l128.8-34.3c-3.2-13.5-2.2-27.3,0-41ZM402.2,330.5l131.6,35.1c27.7,5.6,56.2-10.7,64.9-37.6,14.1-43.3-24.9-84.4-68.6-72.7l-128.4,34.2c1.9,10.1,2.9,20.3,2,30.5s-1.9,10-1.5,10.5ZM391.9,351c11.6-25.1,12.1-55-.2-79.9-1.4,3.2-4.8,4.9-7.9,6.2,9.7,21.3,9.7,46.3,0,67.6l4.6,2.3,3.6,3.8ZM229,271.6c-.2-.2-.7-.1-1,.3-1.2,1.5-3.6,8.7-4.3,11-7,22.1-5.7,46.8,4.6,67.6.9,0,2-2.1,2.9-2.8,1.2-1,5.1-2.4,5.1-3.6s-2.7-6.6-3.2-8.1c-6.1-19.5-5-39.8,3.3-58.5-1.7-1.3-3.8-2-5.4-3.4s-1.7-2.4-1.8-2.5ZM220.3,338.2l-131,35.2c-85,34.3-17.3,152.7,55.5,95.9l95.5-95.5c-9.1-10.2-16.2-22.4-20-35.6ZM399.6,338.7c-3.6,12.6-10.4,24.6-19.2,34.3v1.5s96.3,96.3,96.3,96.3c74.2,53.5,137.8-65.5,53-97.6-43.4-11.4-86.6-23.7-130.1-34.6ZM302.3,391.4c-23-1.8-44.5-14.5-57.9-33.1-3.4.9-5.9,4-9.7,3.4,15.4,23.1,41.3,37.9,69.1,39.9-2.1-3.2-1.5-6.7-1.5-10.2ZM385.3,361.8c-3.8.6-6.3-2.6-9.7-3.5-12.8,18.7-34.7,31.4-57.4,33.2,0,3.6.4,7.3-2,10.2,27.9-1.9,53.8-16.7,69.1-39.9ZM281.3,400.2c-13.1-3.7-25.2-11.2-35.1-20.5l-97,97.1c-53.5,74.1,65.5,137.8,97.6,53l34.6-129.6ZM373.8,380.3c-8.1,6.7-16.5,12.6-26.1,16.9-1.6.7-8.8,2.8-9,3.8l34.8,130c34.3,84.1,151.8,17.6,96.3-55.3l-95-95-.9-.4ZM330.4,402.7c-13.4,2.9-27.5,2.8-40.9,0l-34.2,127.4c-8.4,29.8,9.7,61.3,39.4,69.4,41.1,11.2,78.9-24.2,70.8-65.7l-35.1-131.1Z" fill="#570849"/>
  <path d="M300.2,264.4h19c-1.8-10.6,10.1-10.2,8.7,0,6.2.5,13.7-.7,19.7,0s4.5,2.3,4.9,5.4.6,23.6-.4,27.3-2.7,3.4-5.5,3.7c-24-1.4-50,1.8-73.8,0-3.3-.2-5.8-.7-6.3-4.4-.8-5.7-.6-21.2,0-27.1s.9-3.7,2.7-4.5c3.4-1.4,21.6.4,22.4-.4-1.2-10.1,10.5-10.7,8.7,0ZM291.5,271.1h-14.1c-.2,0-.8.7-1.3.5v7.2h15.4v-7.7ZM319.2,271.1h-19v7.7h19v-7.7ZM343.3,271.6c-.5.2-1.1-.5-1.3-.5h-14.1v7.7h15.4v-7.2ZM291.5,285.9h-15.4c.2,1.1-.5,7.2.8,7.2h14.6v-7.2ZM319.2,285.9h-19v7.2h19v-7.2ZM343.3,285.9h-15.4v7.2h14.6c1.3,0,.6-6.1.8-7.2Z" fill="#570849"/>
  <path d="M332.5,348.9h24.8c.1,0,2.3,1.3,2.5,1.6,2.6,3,.3,7.5-3.6,7.6-29.5-1.5-61.4,2.2-90.6,0-3.2-.2-6.6-.9-6.4-4.9s2.1-4.4,3.4-4.4h22.8l-3.7-10.7c-3.6-.8-11.8,1.7-13.4-2.3s-.7-14.8-.4-17,1-2.4,2.1-3c25.4-.9,51-.1,76.5-.4,2.4,0,3.8,1.2,4.2,3.5s.5,14.7-.1,16.6c-1.5,5-10.3,1.1-13.1,2.8s-4.4,8.9-5.1,10.5ZM342.2,331.5c.5-1.9,1.3-8.1-.5-9l-62.7-.3c-2.9.3-2,9.2-.5,9.2h63.8ZM326.9,338.2h-36.4l4.9,10.8c8.9-.3,18.1.4,26.9-.3l4.6-10.4Z" fill="#570849"/>
  <path d="M263.2,303h92.6c6.5,0,7.1,8.3.5,9.1h-92.2c-5.9-.2-6.7-8.1-.9-9.1Z" fill="#570849"/>
</svg>