<?xml version="1.0" encoding="UTF-8"?>
<svg id="Layer_1" xmlns="http://www.w3.org/2000/svg" version="1.1" viewBox="0 0 620 620">
  <!-- Generator: Adobe Illustrator 29.0.0, SVG Export Plug-In . SVG Version: 2.1.0 Build 186)  -->
  <defs>
    <style>
      .st0 {
        fill: #570849;
      }
    </style>
  </defs>
  <path class="st0" d="M601.6,426l-56.2-18.3c32.1-56.2,38.7-126.1,11.9-190.4-20.8-50-58.1-88-103-110.5V10h-193.5v96.8c-100.9,50.3-147,171-103,276.6l162-52.8c-15.2-18.9-14-46.2,2.8-63.7,18.5-19.3,49.1-20,68.4-1.5,19.3,18.5,20,49.1,1.5,68.4-18.5,19.3-49.1,20-68.4,1.5L46,426l60,184,217.8-71,217.8,71,60-184Z"/>
</svg>