<?xml version="1.0" encoding="UTF-8"?>
<svg id="Layer_1" xmlns="http://www.w3.org/2000/svg" version="1.1" viewBox="0 0 620 620">
  <!-- Generator: Adobe Illustrator 29.1.0, SVG Export Plug-In . SVG Version: 2.1.0 Build 142)  -->
  <defs>
    <style>
      .st0 {
        fill: #5a004a;
      }
    </style>
  </defs>
  <path class="st0" d="M420.8,31.2c-11.9,13.6-24.1,27-36.5,40.1,101.7,31.7,175.7,126.6,175.7,238.7s-7.7,70.3-21.4,101.3c-43.1-31.6-99.7-56.8-162.6-67.8,5.8-66.7-11.8-143.3-58.4-214.6,33.8-31.6,65.8-65,97.4-98.9l-51.8,30.2-2.1,1.2-126.2,73.6,22.7,30.3c41.6,60.5,60.1,120.2,63,172.5-77.7-2.6-161.3,17.7-239.2,73.7-13.8-31-21.5-65.3-21.5-101.4,0-138,112-250,250-250s31.5,0,41.8,0c3.9-2.3,7.8-4.6,11.8-7,15.5-7.9,29.7-18.7,45.5-26.3-31-10.9-64.4-16.8-99.1-16.8h0C144.4,10,10,144.4,10,310s134.4,300,300,300,300-134.4,300-300S531.6,75.3,420.8,31.2ZM130,470.1c47.6-51.6,113.4-80.2,179.9-80.2h0c2.8-.1,5.6-.1,8.4,0-2.9,19.1-8,36.5-14.8,51.9-19,43.1-112.9,89.6-175.4,31.2.6-1.2,1.2-2.2,1.9-3ZM310,560c-70.4,0-89.3-12.5-126.3-34.3,91.8,8.5,157.2-47.3,182.2-129.1,43.1,10.9,84.4,34.8,119.1,73.4,2.3,2.6,3.6,8,4.4,14.1-45.4,46.8-109,75.9-179.4,75.9Z"/>
</svg>