<?xml version="1.0" encoding="UTF-8"?>
<svg id="svg2" xmlns="http://www.w3.org/2000/svg" xmlns:svg="http://www.w3.org/2000/svg" version="1.1" viewBox="0 0 620 620">
  <!-- Generator: Adobe Illustrator 29.0.0, SVG Export Plug-In . SVG Version: 2.1.0 Build 186)  -->
  <g id="layer1">
    <path id="path2170" d="M308.9,10c-11.1.4-11.6,6.3-23.9,6.2-20.7,0-37.5,16.8-37.5,37.5s9.8,29.3,23.6,34.8c3.4,7.9,5.8,21.3-23.6,21.4-6.9,0-12.5,5.6-12.5,12.5v15.6c-43.2,18.9-78,53.6-96.9,96.9h-15.6c-6.9,0-12.5,5.6-12.5,12.5,0,29.2-13.5,26.9-21.4,23.6-5.5-13.8-19-23.6-34.8-23.6s-37.5,16.8-37.5,37.5c0,12.4-6.2,12.9-6.2,25,0,.4,0,.8,0,1.1.4,11.1,6.3,11.6,6.2,23.9,0,20.7,16.8,37.5,37.5,37.5s29.3-9.8,34.8-23.6c7.9-3.4,21.3-5.8,21.4,23.6,0,6.9,5.6,12.5,12.5,12.5h15.6c18.9,43.2,53.6,78,96.9,96.9v15.6c0,6.9,5.6,12.5,12.5,12.5,29.4.1,27,13.5,23.6,21.4-13.8,5.5-23.6,19-23.6,34.8s16.8,37.5,37.5,37.5c12.3,0,12.8,5.9,23.9,6.2.4,0,.7,0,1.1,0,12.1,0,12.6-6.2,25-6.2,20.7,0,37.5-16.8,37.5-37.5s-9.8-29.3-23.6-34.8c-3.3-7.9-5.6-21.4,23.6-21.4,6.9,0,12.5-5.6,12.5-12.5v-15.6c43.2-18.9,77.9-53.6,96.9-96.9h15.6c6.9,0,12.5-5.6,12.5-12.5.1-29.4,13.5-27,21.4-23.6,5.5,13.8,19,23.6,34.8,23.6s37.5-16.8,37.5-37.5c0-12.3,5.9-12.8,6.2-23.9,0-.4,0-.7,0-1.1,0-12.1-6.2-12.6-6.2-25,0-20.7-16.8-37.5-37.5-37.5s-29.3,9.8-34.8,23.6c-7.9,3.3-21.4,5.6-21.4-23.6,0-6.9-5.6-12.5-12.5-12.5h-15.6c-18.9-43.2-53.6-78-96.9-96.9v-15.6c0-6.9-5.6-12.5-12.5-12.5-29.2,0-26.9-13.5-23.6-21.4,13.8-5.5,23.6-19,23.6-34.8s-16.8-37.5-37.5-37.5c-12.4,0-12.9-6.2-25-6.2-.4,0-.8,0-1.1,0Z" fill="#416b8c"/>
    <path id="path4156" d="M310,135c-4.2,0-8.4.2-12.5.4v12.5c-79.7,6.1-143.4,69.8-149.5,149.5h100.8c5-24.5,24.3-43.8,48.7-48.7v12.8c3.6-.9,7.3-1.5,11.2-1.6.4,0,.9,0,1.3,0,4.3,0,8.5.6,12.5,1.6v-12.8c24.5,5,43.8,24.3,48.7,48.7h100.8c-6.1-79.7-69.8-143.5-149.5-149.5v-12.5c-4.1-.3-8.3-.4-12.5-.4ZM297.5,185.6v25.2c-31.7,4-58.8,22.8-74.1,49.2h-28c17.7-40.5,56.3-69.8,102.1-74.4ZM322.5,185.6c45.8,4.6,84.4,33.9,102.1,74.4h-28c-15.3-26.5-42.4-45.3-74.1-49.2v-25.2ZM310,272.5c-20.7,0-37.5,16.8-37.5,37.5s16.8,37.5,37.5,37.5,37.5-16.8,37.5-37.5-16.8-37.5-37.5-37.5ZM148,322.5c3.8,50.4,30.7,94.5,70.2,121.5l-6.3,10.9c6.9,4.7,14.1,8.9,21.6,12.5l6.3-10.8c21.3,10.2,45.1,15.9,70.2,15.9s48.9-5.7,70.2-15.9l6.3,10.8c7.5-3.7,14.7-7.9,21.6-12.5l-6.3-10.9c39.4-27.1,66.3-71.1,70.2-121.5h-100.8c-5,24.5-24.3,43.8-48.7,48.7v-12.8c-4,1-8.2,1.6-12.5,1.6s-8.5-.6-12.5-1.6v12.8c-24.5-5-43.8-24.3-48.7-48.7h-100.8ZM195.4,360h28c15.3,26.5,42.4,45.3,74.1,49.2v25.2c-45.8-4.6-84.4-33.9-102.1-74.4ZM396.6,360h28c-17.7,40.5-56.3,69.8-102.1,74.4v-25.2c31.7-4,58.8-22.8,74.1-49.2Z" fill="#fff"/>
  </g>
</svg>