<?xml version="1.0" encoding="UTF-8"?>
<svg id="svg2" xmlns="http://www.w3.org/2000/svg" xmlns:svg="http://www.w3.org/2000/svg" version="1.1" viewBox="0 0 620 620">
  <!-- Generator: Adobe Illustrator 29.0.0, SVG Export Plug-In . SVG Version: 2.1.0 Build 186)  -->
  <g id="layer1">
    <path id="rect3174" d="M302.5,10l-92.7,162.5c20.1-14.6,43.4-25,68.8-29.7l23.9-41.8V10ZM317.5,10v90.9l23.8,41.8c25.4,4.7,48.7,15.1,68.8,29.7L317.5,10ZM309,154.8c-1,0-1.9,0-2.9,0-24.8.6-49.9,7.2-72.9,20.3-1.9,1.1-3.8,2.3-5.7,3.4-2.6,1.6-5.2,3.3-7.7,5.1-4.3,3-8.3,6.3-12.2,9.7-1.9,1.7-3.8,3.4-5.7,5.2-3.8,3.7-7.3,7.5-10.7,11.5-40.6,48.3-49.1,118.7-16,176.7,3,5.2,6.2,10.1,9.7,14.9,9.9-4.3,19.1-10.1,27-17.4,3.3-2.9,6.4-6,9.2-9.3-2.4-3.3-4.7-6.8-6.8-10.5-23.9-42-17.2-93.1,13.1-127.4,4.9,5.5,9.3,11.6,13,18.3,23.9,42,17.2,93.1-13.1,127.4-2,2.2-4,4.4-6.1,6.4s-4.4,4.1-6.7,6-4.8,3.7-7.3,5.5-5.1,3.4-7.8,4.9c-2.7,1.5-5.4,2.9-8.2,4.2,10.5,12.5,22.7,23.1,36.2,31.5,3.5-2.2,6.9-4.5,10.1-6.9s6.4-5,9.4-7.6c3-2.6,5.9-5.4,8.7-8.2s5.4-5.8,8-8.8c40.6-48.3,49.1-118.7,16-176.7-.3-.6-.6-1.2-1-1.7-4.5-7.6-9.5-14.7-15-21.2,26.9-12.5,56.8-13.2,83.3-3.9,1.1-1.3,2.2-2.7,3.4-4,9.5-11.1,20.6-20.9,32.7-29.2-22.7-12.1-48.2-18.4-74-18.3ZM392.6,178.7c-3.5,2.2-6.9,4.5-10.1,6.9s-6.4,4.9-9.4,7.6-5.9,5.4-8.7,8.2-5.4,5.8-8,8.8c-31.2,37.2-43.4,87.5-32.3,135.1l43.5-11.7c-7.5-34.2,1.9-70.2,25-96.4,4.9,5.5,9.3,11.6,13.1,18.3,23.9,42,17.2,93.1-13.1,127.4-4.9-5.5-9.3-11.6-13-18.3-3.9-6.9-7-14-9.3-21.3l-43.5,11.7c3.3,10.9,7.9,21.6,13.7,31.9,4.7,8.3,10.1,15.9,16,22.9-26.9,12.5-56.7,13.3-83.1,3.9-7.4,9.2-15.8,17.6-25.1,25-3.5,2.9-7.2,5.7-10.9,8.2,45.4,24,101.7,25.1,149.6-2.3,1.9-1.1,3.8-2.3,5.7-3.4,4.9-3.1,9.5-6.3,14-9.8,1.1-.9,2.1-1.7,3.2-2.6,3.8-3.2,7.5-6.6,10.9-10.1,1-1,1.9-2,2.8-3,1.8-2,3.6-4,5.3-6,40.6-48.3,49.1-118.7,16-176.7-.3-.6-.7-1.2-1-1.7-4.5-7.6-9.6-14.6-15.1-21.2-1.2-1.5-2.4-3-3.7-4.4-.3-.3-.6-.6-.8-.9-1.9-2.1-3.9-4.2-6-6.1-.5-.5-1-.9-1.4-1.4-2.1-2-4.2-3.9-6.4-5.7-.3-.2-.5-.5-.8-.7-2.4-2-4.8-3.9-7.3-5.7-.7-.5-1.4-1-2-1.4-1.9-1.3-3.8-2.7-5.8-3.9-.6-.4-1.2-.8-1.9-1.2ZM172.4,209.8L10,302.5h90.9l41.8-23.9c4.7-25.4,15.1-48.7,29.7-68.8ZM447.6,209.8c14.6,20.1,25,43.4,29.7,68.8l41.8,23.9h90.9l-162.4-92.7ZM10,317.5l162.5,92.7c-14.6-20.1-25-43.4-29.7-68.8l-41.8-23.9H10ZM519.1,317.5l-41.8,23.8c-4.7,25.4-15.1,48.8-29.7,68.8l162.4-92.7h-90.9ZM384.7,390.9c-.6.6-1.3,1.2-2,1.8-2.1,1.8-4.2,3.6-6.4,5.2.7-.6,1.5-1.1,2.2-1.7,1.4-1.1,2.9-2.3,4.2-3.5.7-.6,1.3-1.2,2-1.8ZM209.8,447.5l92.7,162.5v-90.9l-23.9-41.8c-25.4-4.7-48.7-15.1-68.8-29.8ZM410.2,447.5c-20.1,14.7-43.5,25-68.8,29.8l-23.8,41.8v90.9l92.7-162.5Z" fill="#570849"/>
  </g>
</svg>