<?xml version="1.0" encoding="UTF-8"?>
<svg id="Layer_1" xmlns="http://www.w3.org/2000/svg" version="1.1" viewBox="0 0 520 600">
  <!-- Generator: Adobe Illustrator 29.1.0, SVG Export Plug-In . SVG Version: 2.1.0 Build 142)  -->
  <defs>
    <style>
      .st0 {
        fill: #38b0fb;
      }
    </style>
  </defs>
  <path class="st0" d="M400.6,352.3c6.1-16.3,9.4-33.9,9.4-52.3s-3.3-36-9.4-52.3l110.9-64,8.3-33.7-33.3-9.6-110.9,64c-22.5-27.1-54.3-46.2-90.6-52.3V24L260,0l-25,24v128c-36.3,6.1-68.1,25.2-90.6,52.3l-110.9-64L.2,150l8.3,33.7,110.9,64c-6.1,16.3-9.4,33.9-9.4,52.3s3.3,36,9.4,52.3L8.5,416.3.2,450l33.3,9.6,110.9-64c22.5,27.1,54.3,46.2,90.6,52.3v128l25,24,25-24v-128c36.3-6.1,68.1-25.2,90.6-52.3l110.9,64,33.3-9.6-8.3-33.7-110.9-64ZM260,400c-36.5,0-68.5-19.6-85.9-48.8l-1.4-2.4c-8.1-14.4-12.7-31-12.7-48.7s4.6-34.3,12.7-48.7l1.4-2.4c17.4-29.3,49.4-48.8,85.9-48.8s68.5,19.6,85.9,48.8l1.4,2.4c8.1,14.4,12.7,31,12.7,48.7s-4.6,34.3-12.7,48.7l-1.4,2.4c-17.4,29.3-49.4,48.8-85.9,48.8Z"/>
  <circle class="st0" cx="260" cy="300" r="50"/>
</svg>